<svg enable-background="new 0 0 240 203.6" viewBox="0 0 240 203.6" xmlns="http://www.w3.org/2000/svg"><g clip-rule="evenodd" fill-rule="evenodd"><g fill="#009847"><path d="m0 51.5c40-9.5 80-17.3 120-17.3s80 6.6 120 16.1c0-4.2 0-8.5 0-12.7-40-9.5-80-16.1-120-16.1s-80 7.7-120 17.3z"/><path d="m0 151.5c40-9.5 80-17.2 120-17.2s80 6.6 120 16.1c0-14.9 0-29.8 0-44.7s0-29.8 0-44.7c-40-9.5-80-16.1-120-16.1-40-.2-80 7.6-120 17.1v44.7z"/><path d="m91.2 158c-.5 1.3-1.1 2.7-1.6 3.9-1.6.1-3.1.2-4.7.3 1.2.7 2.5 1.4 3.7 2.1-.6 1.5-1.2 2.9-1.7 4.4 1.3-1 2.7-2 4.1-3 1.3.8 2.7 1.7 4 2.5-.6-1.4-1.1-2.8-1.7-4.2 1.1-.8 2.2-1.6 3.2-2.4-1.3.1-2.7.1-4 .2-.4-1.2-.8-2.5-1.3-3.8z"/><path d="m149.5 157.5c-.5 1.3-1.1 2.5-1.6 3.8-1.6-.1-3.1-.1-4.7-.3 1.2.8 2.5 1.7 3.7 2.5-.6 1.4-1.2 2.8-1.7 4.2 1.3-.8 2.7-1.7 4.1-2.6 1.3 1 2.7 2 4 3-.6-1.5-1.1-2.9-1.7-4.4 1.1-.6 2.2-1.3 3.2-2-1.3-.1-2.7-.2-4-.3-.3-1.3-.8-2.6-1.3-3.9z"/><path d="m141.9 172.8c-.5 1.3-1.1 2.5-1.6 3.8-1.6-.1-3.1-.1-4.7-.2 1.2.8 2.4 1.6 3.7 2.5-.6 1.4-1.2 2.8-1.7 4.2 1.3-.9 2.7-1.8 4.1-2.6 1.3 1 2.7 1.9 4 2.9-.6-1.5-1.1-2.9-1.7-4.4 1.1-.7 2.2-1.3 3.2-2-1.4-.1-2.7-.1-4.1-.2-.3-1.4-.7-2.7-1.2-4z"/><path d="m131.3 183.9c-.5 1.3-1.1 2.5-1.6 3.8-1.6 0-3.1-.1-4.7-.1 1.2.8 2.5 1.6 3.7 2.4-.6 1.4-1.2 2.8-1.7 4.2 1.3-.9 2.7-1.8 4.1-2.7 1.3 1 2.7 1.9 4 2.8-.6-1.5-1.1-2.9-1.7-4.3 1.1-.7 2.2-1.4 3.2-2.1-1.3-.1-2.7-.1-4-.1-.4-1.3-.8-2.6-1.3-3.9z"/><path d="m120 193.3c-.5 1.3-1 2.6-1.5 3.9-1.6 0-3.1 0-4.7 0 1.2.8 2.5 1.6 3.7 2.3-.6 1.4-1.1 2.9-1.7 4.3 1.3-1 2.7-1.9 4-2.8 1.3.9 2.7 1.8 4.1 2.7-.6-1.5-1.2-2.9-1.7-4.3 1.1-.8 2.2-1.5 3.2-2.2-1.3 0-2.7 0-4 0-.4-1.4-.9-2.7-1.4-3.9z"/><path d="m108 183.9c-.5 1.3-1.1 2.6-1.6 3.9-1.6.1-3.1.1-4.7.1 1.2.8 2.5 1.5 3.7 2.3-.6 1.5-1.2 2.9-1.7 4.3 1.3-1 2.7-1.9 4.1-2.9 1.3.9 2.7 1.8 4 2.6-.6-1.4-1.1-2.9-1.7-4.3 1.1-.7 2.2-1.5 3.3-2.2-1.4 0-2.7.1-4.1.1-.4-1.4-.9-2.6-1.3-3.9z"/><path d="m96 172.9c-.5 1.3-1.1 2.7-1.6 3.9-1.6.1-3.1.1-4.7.2 1.2.7 2.4 1.5 3.7 2.2-.6 1.5-1.2 2.9-1.7 4.3 1.3-1 2.7-2 4.1-3 1.3.9 2.7 1.7 4 2.6-.6-1.4-1.1-2.8-1.7-4.2 1.1-.8 2.2-1.6 3.2-2.3-1.3 0-2.7.1-4 .1-.4-1.2-.8-2.5-1.3-3.8z"/><path d="m111.9 161.5c2 0 3.8.7 5.3 2.2s2.2 3.3 2.2 5.6-.7 4.2-2.3 5.7c-1.5 1.5-3.3 2.3-5.4 2.3-2.2.1-4-.7-5.4-2.1-1.5-1.4-2.2-3.3-2.2-5.6 0-2.4.8-4.4 2.5-6 1.5-1.3 3.3-2 5.3-2.1zm-.2.8c-1.4 0-2.5.6-3.4 1.6-1.1 1.3-1.6 3.1-1.6 5.5 0 2.5.6 4.4 1.6 5.7.8 1 1.9 1.5 3.3 1.4 1.5 0 2.7-.6 3.6-1.7 1-1.1 1.4-2.9 1.4-5.3 0-2.6-.5-4.5-1.6-5.8-.6-.9-1.8-1.4-3.3-1.4zm12.5 6.3c1.2-1.4 2.4-2.2 3.6-2.1.6 0 1.1.2 1.5.4.4.3.7.8 1 1.4.2.4.2 1.1.2 2.1v4.4c0 .6.1 1.1.2 1.3s.2.3.4.4.6.2 1.1.2v.4c-1.8 0-3.5-.1-5.2-.1 0-.1 0-.3 0-.4h.2c.5 0 .8-.1 1-.2s.3-.4.4-.6c0-.1 0-.5 0-1.1 0-1.4 0-2.8 0-4.2 0-.9-.1-1.6-.4-2s-.7-.6-1.3-.7c-.9 0-1.8.5-2.7 1.5v5.4c0 .7 0 1.1.1 1.3.1.3.3.4.5.5s.6.2 1.2.2v.4c-1.8 0-3.5 0-5.2 0 0-.1 0-.3 0-.4h.2c.5 0 .9-.1 1.1-.4s.3-.8.3-1.5c0-1.3 0-2.5 0-3.8 0-1.2 0-2-.1-2.2 0-.3-.1-.5-.3-.6-.1-.1-.3-.2-.5-.2s-.5.1-.8.2c-.1-.1-.1-.3-.2-.4 1.1-.4 2.1-.8 3.2-1.2h.5z"/></g><path d="m193.9 113.3c2.4.4 4.8.8 7.2 1.3 1.9.3 3.2.4 4 .1s1.2-.9 1.2-1.9-.4-1.7-1.1-2.3c-.7-.5-2.2-1-4.4-1.4-2.3-.4-4.6-.8-6.9-1.2zm11.8-11c2.8.6 5.1 1.1 6.7 1.8 1.7.6 3 1.3 3.9 2 1.2.9 2.1 2 2.7 3.3s.9 2.7.9 4.1c0 1.8-.5 3.3-1.4 4.4s-2.2 1.8-3.9 2.1c1.4.8 2.4 1.7 3 2.7.3.5.5 1.2.7 1.9.2.8.3 1.7.3 2.7v1c0 1.9.1 3.5.5 4.7.3 1.2.7 2 1.2 2.3v.5c-4.6-1.1-9.2-2.1-13.8-3-.2-.4-.4-.9-.5-1.5s-.2-1.4-.2-2.3c0-.5 0-.9 0-1.4 0-.4 0-.8-.1-1.2-.1-1.1-.5-2-1.2-2.6s-1.8-1-3.3-1.3c-2.5-.4-4.9-.9-7.4-1.3v9.3c-4.2-.6-8.4-1.2-12.6-1.8 0-10.1 0-20.2 0-30.3 8.2 1.1 16.3 2.4 24.5 3.9z" fill="#fe0"/><path d="m143.2 125.5c0-10.1 0-20.2 0-30.3 11.3.6 22.6 1.5 34 2.7v7.5c-7.2-.8-14.4-1.5-21.6-2v3.6c5.8.4 11.6 1 17.4 1.5v7.5c-5.8-.6-11.6-1.1-17.4-1.5v4c7.5.6 15.1 1.3 22.6 2.1v7.8c-11.6-1.3-23.3-2.2-35-2.9z" fill="#fe0"/><path d="m114.2 125.1c0-7.5 0-15.1 0-22.6-3.9.1-7.7.1-11.6.3 0-2.5 0-5.1 0-7.7 11.9-.3 23.8-.3 35.6 0v7.7c-3.9-.1-7.8-.2-11.6-.3v22.6c-4.1-.1-8.3-.1-12.4 0z" fill="#fe0"/><path d="m73.4 127.1c0-10.1 0-20.2 0-30.3 4.1-.4 8.3-.7 12.4-1v22c6.5-.4 13.1-.7 19.6-.9v8.3c-10.7.4-21.4 1-32 1.9z" fill="#fe0"/><path d="m54.1 129.4c0-10 0-20 0-30 4.2-.6 8.3-1.1 12.5-1.6v30c-4.2.5-8.4 1-12.5 1.6z" fill="#fe0"/><path d="m19.5 135.9c0-10.1 0-20.2 0-30.3 10.2-2.3 20.4-4.3 30.7-6v7.4c-6.3 1-12.5 2.1-18.8 3.3v4.1c5.1-1 10.2-1.9 15.4-2.8v7.5c-5.1.9-10.2 1.8-15.4 2.8v11.3c-4 .9-7.9 1.8-11.9 2.7z" fill="#fe0"/><path d="m186.1 94.1c0-11.5 0-23 0-34.5 4.8.7 9.6 1.5 14.4 2.3v25.1c6.6 1.3 13.2 2.6 19.8 4.2v9.5c-11.3-2.7-22.7-4.8-34.2-6.6zm-21.5-31.5c0-2.3 0-4.5 0-6.8 4.2.4 8.4.8 12.6 1.3v6.8c-4.2-.4-8.4-.8-12.6-1.3zm0 29c0-8.4 0-16.8 0-25.3 4.2.4 8.4.8 12.6 1.3v25.2c-4.2-.3-8.4-.8-12.6-1.2zm-40.7-1.8c0-11.5 0-23 0-34.5 11.9.2 23.8.7 35.6 1.5v8.5c-7.3-.5-14.5-.9-21.8-1.2v4.7c5.9.2 11.9.5 17.8.9v8.5c-6-.4-11.9-.6-17.8-.9v12.9c-4.5-.3-9.2-.4-13.8-.4zm-52.2 2.2c0-11.5 0-23 0-34.6 5.3-.5 10.6-.9 16-1.3 4.5 6.4 9 12.8 13.5 19.3 0-6.7 0-13.3 0-19.9 4.3-.1 8.7-.2 13.1-.3v34.6c-5.1.1-10.1.2-15.1.4-4.9-6.6-9.7-13.1-14.6-19.5v20.2c-4.4.3-8.6.7-12.9 1.1zm-52.2-8.7c0-6 1.8-11 5.5-14.9s9.2-6.5 16.5-7.9c7.3-1.2 12.8-.4 16.5 2.1 3.7 2.6 5.6 6.9 5.6 13 0 6-1.9 10.7-5.6 14.3s-9.2 6-16.5 7.1c-7.3 1.3-12.8.9-16.5-1.3-3.6-2.3-5.5-6.4-5.5-12.4zm13.6-3c0 3 .7 5.1 2.2 6.5 1.4 1.3 3.5 1.7 6.2 1.3 2.7-.5 4.8-1.6 6.2-3.4 1.5-1.8 2.2-4.2 2.2-7.2s-.7-5.3-2.2-6.7c-1.4-1.3-3.5-1.8-6.2-1.3s-4.8 1.6-6.2 3.5-2.2 4.3-2.2 7.3z" fill="#fe0"/><path d="m208.8 63.9c.8.2 1.6.5 2.4 1s1.4 1.2 1.8 2 .6 1.5.6 2.3c0 .7-.2 1.4-.6 2s-1 1-1.8 1.2-1.6.2-2.4 0-1.7-.5-2.4-1c-.8-.5-1.4-1.2-1.8-1.9-.4-.8-.6-1.5-.6-2.2 0-.8.2-1.4.6-2s1.1-1 1.8-1.2c.8-.4 1.6-.4 2.4-.2zm0 .6c-.7-.1-1.3-.1-2 .1-.6.2-1.2.5-1.5 1-.4.5-.6 1.1-.6 1.7s.2 1.2.6 1.8.9 1.2 1.5 1.6 1.3.7 2 .9 1.4.1 2-.1 1.2-.5 1.5-1c.4-.5.6-1.1.6-1.6 0-.6-.2-1.3-.6-1.9s-.9-1.2-1.5-1.6-1.3-.7-2-.9zm-2.1 5.5c.3.1.6.1.8.2 0-.6 0-1.3 0-1.9.2 0 .3.1.5.1.3.1.5.1.7.3s.5.6.9 1.3c.1.3.3.5.5.8.3.1.7.1 1 .2-.2-.3-.4-.6-.6-1-.3-.5-.6-.8-.8-1.1-.1-.1-.3-.2-.4-.3.4 0 .8 0 1.1-.2s.4-.5.4-.8-.1-.5-.2-.8c-.2-.2-.4-.4-.7-.6-.3-.1-.7-.3-1.3-.4s-1.2-.2-1.8-.3c-.1 1.5-.1 3-.1 4.5zm.9-2.4c.3.1.7.1 1 .2.5.1.8.1 1 0s.3-.3.3-.4 0-.3-.1-.4-.2-.2-.4-.3c-.1-.1-.4-.2-.8-.3-.3-.1-.6-.1-1-.2z" fill="#fe0"/><path d="m0 172.5c40-9.5 80-17.2 120-17.2s80 6.6 120 16.1c0-3.5 0-7 0-10.5-40-9.5-80-16.1-120-16.1s-80 7.7-120 17.2z" fill="#009847"/><path d="m99.2 145.2c-.5 1.3-1.1 2.7-1.6 3.9-1.6.1-3.1.2-4.7.2 1.2.7 2.4 1.5 3.7 2.2-.6 1.5-1.2 2.9-1.7 4.3 1.3-1 2.7-2 4.1-2.9 1.3.9 2.7 1.7 4 2.6-.6-1.4-1.1-2.8-1.7-4.2 1.1-.8 2.2-1.6 3.2-2.3-1.3.1-2.7.1-4 .1-.4-1.4-.9-2.6-1.3-3.9z" fill="#fe0"/><path d="m120 144.8c-.5 1.3-1.1 2.6-1.6 3.9-1.6 0-3.1 0-4.7 0 1.2.8 2.4 1.6 3.7 2.3-.6 1.4-1.2 2.9-1.7 4.3 1.3-1 2.7-1.9 4.1-2.8 1.3.9 2.7 1.8 4 2.7-.6-1.5-1.1-2.9-1.7-4.3 1.1-.8 2.2-1.5 3.2-2.2-1.3 0-2.7 0-4 0-.3-1.3-.8-2.6-1.3-3.9z" fill="#fe0"/><path d="m141.4 145.2c-.5 1.3-1.1 2.5-1.6 3.8-1.6-.1-3.1-.1-4.7-.2 1.2.8 2.4 1.7 3.7 2.5-.6 1.4-1.2 2.8-1.7 4.2 1.3-.9 2.7-1.8 4.1-2.6 1.3 1 2.7 1.9 4 2.9-.6-1.5-1.1-2.9-1.7-4.4 1.1-.7 2.2-1.4 3.2-2-1.3-.1-2.7-.1-4-.2-.4-1.4-.9-2.7-1.3-4z" fill="#fe0"/><path d="m119 22.6c-.5 1.2-1.1 2.5-1.6 3.8-1.6-.1-3.1-.1-4.6-.2 1.2.8 2.4 1.6 3.7 2.5-.6 1.4-1.2 2.8-1.7 4.2 1.3-.9 2.7-1.8 4.1-2.7 1.3 1 2.7 1.9 4 2.8-.6-1.4-1.1-2.9-1.7-4.3 1.1-.7 2.2-1.4 3.2-2.1-1.4-.1-2.7-.1-4.1-.2-.3-1.2-.8-2.5-1.3-3.8z" fill="#fe0"/><path d="m113.2 0c2.3 0 4.2.8 5.9 2.4s2.5 3.7 2.5 6.2-.8 4.7-2.5 6.3c-1.7 1.7-3.7 2.6-6 2.6-2.4 0-4.4-.8-6.1-2.4-1.6-1.6-2.4-3.7-2.4-6.3 0-2.7.9-4.9 2.8-6.6 1.6-1.4 3.5-2.2 5.8-2.2zm-.2.9c-1.6 0-2.8.6-3.7 1.7-1.2 1.4-1.8 3.4-1.8 6.1s.6 4.8 1.8 6.3c.9 1.1 2.2 1.6 3.7 1.6 1.6 0 3-.7 4-1.9 1.1-1.3 1.6-3.2 1.6-5.8 0-2.8-.6-5-1.8-6.4-.9-1.1-2.2-1.6-3.8-1.6zm13.8 6.9c1.4-1.6 2.7-2.4 4-2.3.6 0 1.2.2 1.7.5s.8.8 1.1 1.5c.2.5.3 1.3.3 2.3v4.8c0 .7.1 1.2.2 1.5.1.2.3.4.5.5s.6.2 1.2.2v.4c-2-.1-3.9-.1-5.8-.1 0-.2 0-.3 0-.4h.2c.6 0 .9-.1 1.2-.2.2-.2.4-.4.5-.7.1-.2.1-.5.1-1.2 0-1.6 0-3.1 0-4.6 0-1-.1-1.8-.4-2.2-.6-.6-1.1-.8-1.7-.8-1 0-2 .5-3 1.6v6c0 .8.1 1.2.1 1.4.1.2.3.4.5.5s.6.2 1.3.2v.4c-2 0-3.9 0-5.8 0 0-.2 0-.3 0-.4h.3c.6 0 1-.2 1.2-.5s.3-.8.3-1.6c0-1.4 0-2.8 0-4.2s0-2.2-.1-2.5-.2-.5-.3-.6-.3-.2-.5-.2-.5.1-.9.2c-.1-.1-.1-.3-.2-.5 1.2-.4 2.4-.9 3.5-1.4h.6c-.1.9-.1 1.7-.1 2.4z" fill="#009847"/></g></svg>